<?xml version="1.0" encoding="utf-8" ?>
<svg xmlns="http://www.w3.org/2000/svg" xmlns:xlink="http://www.w3.org/1999/xlink" width="512" height="512">
	<path fill="white" transform="scale(0.666667 0.666667)" d="M-0 -0L768 0L768 768L-0 768L0 -0Z"/>
	<path transform="scale(0.666667 0.666667)" d="M22.9781 152.244C23.8412 152.212 30.484 151.834 30.9698 152.161C30.9894 152.175 31.3606 154.145 31.4065 154.358C33.1401 162.406 35.3353 170.611 38.5197 178.206C47.7216 200.154 63.9709 220.007 81.816 235.592C97.4787 249.272 115.835 258.501 133.875 268.537L231.188 322.245C243.291 329.624 253.838 339.369 264.32 348.852C269.125 353.199 273.762 357.764 279.089 361.48C281.447 358.391 282.879 354.668 284.765 351.293C287.498 346.405 290.632 341.756 294.083 337.346C311.432 315.172 332.356 297.62 355.989 282.505L383.828 265.011C385.929 265.759 388.42 268.259 390.343 269.569L400.355 275.774C428.857 293.033 457.07 312.877 476.585 340.424C481.288 347.063 485.082 354.024 488.945 361.157C504.554 348.47 518.521 333.56 535.204 322.24C546.009 314.908 558.101 308.987 569.529 302.649L658.875 253.483C677.56 242.383 694.206 227.595 708.011 210.85C716.223 200.888 723.392 190.41 728.764 178.624C732.545 170.331 734.88 161.712 737.116 152.905L745.17 153.069C745.062 159.664 744.16 166.346 743.277 172.875C741.044 189.389 737.356 205.632 733.824 221.902L713.141 311.072L700.917 356.755C699.37 362.152 698.188 368.386 695.877 373.477C693.943 377.736 690.395 381.545 687.446 385.147L676.143 398.931C651.598 428.494 623.276 453.667 590.942 474.406L571.731 486.18C555.41 495.184 538.584 502.456 521.236 509.184C523.387 514.967 527.032 520.538 530.305 525.743C534.221 531.973 538.146 538.242 541.517 544.787L431.682 551.222L411.587 592.545C409.337 596.941 407.3 601.807 404.53 605.882L363.451 606.324C362.339 605.025 361.575 603.033 360.794 601.498L355.351 590.379L342.317 564.463C340.11 560.258 338.083 556.013 335.615 551.946L225.924 545.295C227.841 538.967 233.165 532.893 236.749 527.32L247.905 509.732C244.18 507.85 240.136 506.545 236.259 505.01L217.5 496.923C184.86 481.459 153.616 460.957 127.084 436.401C111.462 421.943 97.7558 406.524 84.3401 390.045C80.3224 385.11 75.5415 380.054 72.5872 374.407C70.9443 371.267 70.3121 367.137 69.371 363.697L64.9373 348.248L39.4753 249.118C32.09 217.178 24.2736 185.124 22.9781 152.244Z"/>
	<path fill="white" transform="scale(0.666667 0.666667)" d="M388.554 342.542C404.974 355.029 418.455 370.693 430.34 387.431L457.841 387.531L425.317 418.602L388.63 451.249L388.554 342.542Z"/>
	<path fill="white" transform="scale(0.666667 0.666667)" d="M378.877 343.312L379.416 343.518L379.697 365.962L379.917 402.977L380.165 432.971C380.183 439.373 380.616 446.297 379.397 452.588L343.967 420.836L309.961 387.808L309.559 387.472L332.528 387.334C333.733 387.321 336.747 387.664 337.79 387.272C338.08 387.162 339.822 384.218 340.116 383.783C342.093 380.851 344.245 378.127 346.464 375.375C356.155 363.356 367.127 353.265 378.877 343.312Z"/>
	<path fill="white" transform="scale(0.666667 0.666667)" d="M697.268 328.838L692.665 344.625C690.278 352.619 688.032 360.795 684.241 368.25C678.337 379.862 670.004 390.081 661.651 400.009C646.018 418.591 628.594 435.301 609.252 449.989L589.068 463.989C565.809 479.573 540.905 492.678 514.211 501.356L509.202 493.685L499.944 480.045L511.542 472.328L545.931 449.154L577.337 428.161L594.467 415.991L639.916 382.955C660.776 366.866 680.828 349.525 697.268 328.838Z"/>
	<path fill="white" transform="scale(0.666667 0.666667)" d="M70.4031 329.341C79.1055 339.449 88.4401 349.437 98.3228 358.418C108.66 367.813 119.794 376.208 130.947 384.589L194.21 429.217L268.643 479.631L260.62 491.854C258.654 494.849 256.582 498.092 254.182 500.751C245.966 498.973 238.349 495.999 230.625 492.756C213.303 485.483 196.925 476.165 181.103 466.075C150.557 446.596 122.316 422.645 99.6899 394.268C93.3722 386.345 87.2869 378.176 82.7723 369.061C79.6576 362.773 77.8487 356.096 75.8742 349.394L70.4031 329.341Z"/>
	<path fill="white" transform="scale(0.666667 0.666667)" d="M720.039 217.312L720.631 217.383L713.452 236.536C710.04 243.936 705.518 250.756 700.68 257.291C696.092 263.487 691.292 269.366 685.497 274.498C680.927 278.545 675.861 281.962 670.789 285.342C659.626 292.783 647.78 299.283 636.156 305.974L591.779 332.135L573.75 342.921C570.448 344.878 566.962 347.242 563.354 348.524L562.967 348.654C562.581 349.238 562.35 349.782 562.115 350.434L551.394 376.45C549.38 381.105 547.512 386.702 544.503 390.756C543.109 392.635 540.74 394.178 538.842 395.515L528.07 402.645C519.607 408.066 511.132 414.011 502.026 418.305L499.596 408.95L489.505 374.377L506.98 358.485C517.186 349.327 527.066 340.579 538.597 333.077C549.738 325.829 561.978 320.279 573.684 314.023L645.408 275.254C655.514 269.594 665.848 264.403 675.604 258.13C680.27 255.129 684.733 251.648 689.063 248.181C700.541 238.987 710.2 228.177 720.039 217.312Z"/>
	<path fill="white" transform="scale(0.666667 0.666667)" d="M46.3671 216.171L58.6046 228.977C67.5198 238.098 77.1558 246.806 87.669 254.062C100.689 263.049 115.246 270.075 129.161 277.561L193.274 312.842C207.317 320.558 221.91 327.609 235.149 336.701C245.572 343.859 254.833 352.957 264.121 361.502C268.791 365.798 273.795 369.827 277.977 374.612C277.613 379.779 275.334 385.287 273.968 390.286L268.743 410.533L266.01 419.713L261.88 417.295L234.11 399.264C230.76 397.02 226.006 394.472 223.317 391.496C221.535 389.525 220.412 386.267 219.343 383.847L213.25 369.885C210.272 363.071 206.102 356.14 204.453 348.892C199.013 347.839 193.787 344.174 188.981 341.442L168.733 329.841L118.317 300.517C106.373 293.315 93.6561 286.294 82.9191 277.369C74.8318 270.647 68.3882 261.86 62.6841 253.102C58.9729 247.403 55.3998 241.572 52.7016 235.312C50.034 229.124 48.1979 222.644 46.3671 216.171Z"/>
	<path fill="white" transform="scale(0.666667 0.666667)" d="M383.148 277.312L384.376 277.133C390.818 280.053 397.094 284.539 403.137 288.264C435.303 308.094 464.492 332.864 482.028 366.992L474.942 373.265C473.244 374.9 471.061 377.636 468.9 378.592C468.37 378.827 467.291 378.838 466.688 378.865L443.137 379.22L437.927 379.375C437.617 379.385 436.412 379.529 436.178 379.437C435.203 379.055 433.402 375.898 432.739 375L424.122 364.174C412.344 350.161 398.93 338.533 385.312 326.415C384.967 326.087 384.58 325.845 384.188 325.577C380.12 327.916 376.371 332.048 372.877 335.185C363.898 343.248 354.976 351.323 346.908 360.324L331.38 378.903L303.644 378.606C302.603 378.58 299.503 378.843 298.653 378.453C298.209 378.25 297.279 376.994 296.861 376.553L291.584 371.183C289.965 369.647 288.203 368.286 286.424 366.944C302.303 333.798 331.018 309.931 361.387 290.501C368.509 285.944 375.616 281.163 383.148 277.312Z"/>
	<path fill="white" transform="scale(0.666667 0.666667)" d="M714.704 258.082C714.047 264.264 711.508 270.828 709.816 276.836L704.86 294.658C703.757 298.339 702.649 302.264 700.752 305.629C697.921 310.649 693.656 315.376 690.105 319.938C665.02 352.164 632.981 375.905 599.911 399.281L536.594 442.583L515.652 456.899L498.616 468.734C495.127 471.317 491.651 473.81 488.78 477.097C491.592 484.54 496.741 491.525 501.005 498.238L525.169 536.074L475.219 540.299L439.304 541.84C446.001 526.54 455.169 512.099 463.229 497.472C473.928 478.058 483.159 457.688 496.156 439.63C498.189 436.806 500.34 433.437 502.996 431.163C505.715 428.835 509.333 427.05 512.39 425.145L535.371 410.534C540.425 407.264 546.86 403.807 550.738 399.188C552.738 396.805 553.67 392.815 554.85 389.903L564.203 367.925C565.312 365.512 566.276 362.727 567.662 360.487C568.062 359.842 568.736 359.33 569.345 358.897C572.222 356.85 575.591 355.206 578.664 353.457L597.801 342.729L627.023 326.116L651.915 310.912C665.296 302.9 680.363 295.045 691.965 284.581C700.679 276.722 707.612 267.366 714.704 258.082Z"/>
	<path fill="white" transform="scale(0.666667 0.666667)" d="M52.8077 259.12C60.7198 269.234 68.5163 278.976 78.3962 287.281C84.0501 292.033 90.4127 295.787 96.74 299.55L117.945 311.984L171.809 343.247L189.477 353.52C192.319 355.15 195.763 356.73 198.333 358.71C199.501 359.61 200.447 362.367 201.108 363.698L209.866 382.356C212.369 387.998 214.634 395.126 218.4 399.986C221.657 404.189 227.284 407.174 231.719 410.006L255.083 424.922C258.55 427.118 262.458 429.08 265.647 431.637C269.207 434.491 271.976 439.216 274.347 443.049C287.301 463.99 298.269 486.31 309.939 507.985L321.973 529.903C324.134 534.002 326.441 537.989 327.781 542.447C322.863 542.799 317.529 542.02 312.608 541.618L291.248 540.058L242.079 536.449L265.288 502.377C270.459 494.842 276.591 487.116 280.519 478.842C280.705 478.45 281.39 477.191 281.354 476.872C281.341 476.752 281.183 476.7 281.096 476.615C277.324 472.919 271.833 470.172 267.375 467.245L246.8 453.395L183.804 410.298C163.403 396.177 142.156 382.506 122.833 366.94C105.656 353.101 89.8416 337.151 76.4493 319.63C72.7175 314.748 67.9636 309.486 65.0625 304.115C63.3932 301.025 62.7842 296.479 61.8721 293.011C58.9315 281.828 56.6341 270.007 52.8077 259.12Z"/>
	<path fill="white" transform="scale(0.666667 0.666667)" d="M480.807 381.677C483.179 385.855 484.456 391.356 485.961 395.948L495.09 425.621L485.625 430.544C465.799 441.244 447.199 454.844 431.191 470.677C420.3 481.448 409.956 493.518 405.488 508.442C413.779 502.15 420.351 493.642 427.769 486.364C441.43 472.959 457.438 461.218 473.911 451.531L398.017 599.2L369.645 598.589L313.005 491.395L295.465 452.398C311.359 461.939 325.614 473.433 339.215 485.977L351.286 497.868C354.099 500.77 357.597 505.34 361.171 507.25L361.794 506.996C361.931 506.05 361.817 505.201 361.581 504.281C360.858 501.462 359.165 498.63 357.726 496.125C352.899 487.724 346.251 480.577 339.383 473.817C327.091 461.719 313.491 451.078 299.239 441.393L273.631 425.45L286.696 382.118C294.058 387.716 300.59 394.437 307.444 400.64L353.592 442.279L373.032 459.226C376.595 462.264 380.068 465.508 383.87 468.242C388.855 465.108 393.281 460.755 397.688 456.867L419.601 437.088L440.972 417.776L480.807 381.677Z"/>
	<path transform="scale(0.666667 0.666667)" d="M380.283 491.662L388.153 491.722L388.506 565.329L388.528 577.695C388.53 578.671 388.802 580.737 388.534 581.614C388.45 581.888 388.136 582.026 387.938 582.232L379.758 582.118L380.283 491.662Z"/>
</svg>
